<?xml version="1.0" ?><svg id="Layer_1" style="enable-background:new 0 0 512 512;" version="1.1" viewBox="0 0 512 512" xml:space="preserve" xmlns="http://www.w3.org/2000/svg" xmlns:xlink="http://www.w3.org/1999/xlink"><style type="text/css">
	.st0{fill:#A6D17A;}
	.st1{fill:#FFCE6C;}
	.st2{fill:#ED6F62;}
	.st3{fill:#7DBAE7;}
	.st4{fill:#474747;}
</style><g id="XMLID_2_"><polygon class="st0" id="XMLID_15_" points="57,402.1 138.5,402.1 138.5,258 57,299.4  "/><polygon class="st1" id="XMLID_18_" points="158,248.1 158,402.1 239.6,402.1 239.6,238.3 197.4,228.2  "/><polygon class="st2" id="XMLID_20_" points="259.1,242.9 259.1,402.1 340.6,402.1 340.6,233.7 303.5,253.6  "/><polygon class="st3" id="XMLID_21_" points="360.1,223.2 360.1,402.1 441.6,402.1 441.6,179.4  "/><path class="st4" d="M7.9,294.5L7.9,294.5c-4.4-8.7-0.9-19.4,7.8-23.8l176.1-89.4l105.6,25.3l167.4-89.9l16.8,31.2   l-179.3,96.3l-106-25.4L31.8,302.3C23,306.7,12.4,303.2,7.9,294.5z" id="XMLID_13_"/><polygon class="st4" id="XMLID_1_" points="412.6,112 506,109.9 461.1,191.9  "/></g></svg>